<?xml version="1.0" encoding="UTF-8"?>
<svg width="150px" height="210px" viewBox="0 0 150 210" version="1.1" xmlns="http://www.w3.org/2000/svg" xmlns:xlink="http://www.w3.org/1999/xlink">
    <!-- Generator: Sketch 52.5 (67469) - http://www.bohemiancoding.com/sketch -->
    <title>Group 6</title>
    <desc>Created with Sketch.</desc>
    <g id="V5-–-Simple-Search-Sprint-2" stroke="none" stroke-width="1" fill="none" fill-rule="evenodd">
        <g id="1.3-Suitability-of-vehicle-Summary-Copy" transform="translate(-481.000000, -625.000000)">
            <g id="Group-6" transform="translate(481.000000, 625.000000)">
                <g id="Group-5">
                    <rect id="Rectangle" fill="#E6BBB6" x="0" y="0" width="150" height="210"></rect>
                    <rect id="Rectangle" fill="#9F002B" x="0" y="0" width="150" height="108"></rect>
                    <circle id="Oval" fill="#FFFFFF" cx="134" cy="14" r="10"></circle>
                    <circle id="Oval-Copy" fill="#FFFFFF" cx="17" cy="14" r="10"></circle>
                    <rect id="Rectangle-Copy-2" fill="#F1D8D4" x="0" y="156" width="150" height="17"></rect>
                    <rect id="Rectangle-Copy-3" fill="#F1D8D4" x="0" y="108" width="150" height="42"></rect>
                    <rect id="Rectangle-Copy" fill="#01A0ED" x="0" y="150" width="150" height="6"></rect>
                    <rect id="Rectangle-Copy-4" fill="#01A0ED" x="0" y="173" width="150" height="6"></rect>
                    <rect id="Rectangle-Copy-5" fill="#01A0ED" x="0" y="76" width="150" height="5"></rect>
                    <rect id="Rectangle-Copy-15" fill="#01A0ED" x="0" y="103" width="150" height="5"></rect>
                    <rect id="Rectangle-Copy-6" fill="#01A0ED" x="0" y="28" width="150" height="21"></rect>
                    <g id="Group-4" transform="translate(40.000000, 53.000000)" fill="#FFFFFF">
                        <rect id="Rectangle-Copy-9" x="30" y="7" width="40" height="3"></rect>
                        <rect id="Rectangle-Copy-10" x="30" y="11.5" width="39.9892578" height="3"></rect>
                        <rect id="Rectangle-Copy-11" x="30" y="16" width="34" height="3"></rect>
                        <path d="M4.42089326,16.8406593 C4.73883581,16.8406593 5.0353254,16.7898357 5.31037093,16.6881868 C5.58541646,16.586538 5.82260814,16.4326933 6.02195307,16.2266484 C6.22129799,16.0206034 6.37900522,15.759617 6.49507949,15.4436813 C6.61115375,15.1277457 6.66919001,14.7554966 6.66919001,14.3269231 L6.66919001,7 L8.8342165,7 L8.8342165,14.6813187 C8.8342165,15.3406626 8.72445227,15.9368105 8.50492051,16.4697802 C8.28538876,17.0027499 7.98006756,17.4560421 7.58894777,17.8296703 C7.19782797,18.2032986 6.73227623,18.4917572 6.19227858,18.6950549 C5.65228092,18.8983527 5.06182506,19 4.42089326,19 C3.77996147,19 3.1895056,18.8983527 2.64950795,18.6950549 C2.1095103,18.4917572 1.6426969,18.2032986 1.24905375,17.8296703 C0.855410598,17.4560421 0.548827744,17.0027499 0.329295988,16.4697802 C0.109764232,15.9368105 0,15.3406626 0,14.6813187 L0,7 L2.17259652,7 L2.17259652,14.3269231 C2.17259652,14.7554966 2.23063278,15.1277457 2.34670704,15.4436813 C2.4627813,15.759617 2.62048853,16.0206034 2.81983346,16.2266484 C3.01917839,16.4326933 3.25637006,16.586538 3.53141559,16.6881868 C3.80646113,16.7898357 4.10295072,16.8406593 4.42089326,16.8406593 Z M10.984103,7.01648352 L13.1794095,7.01648352 L13.1794095,12.1346154 L17.0552612,7.01648352 L19.7577593,7.01648352 L15.987888,11.7142857 L20,18.8351648 L17.4489023,18.8351648 L14.5798637,13.5357143 L13.1794095,15.2417582 L13.1794095,18.8351648 L10.984103,18.8351648 L10.984103,7.01648352 Z" id="UK"></path>
                        <rect id="Rectangle-Copy-12" x="0" y="0" width="70" height="5"></rect>
                    </g>
                    <g id="Group-3" transform="translate(62.000000, 6.000000)" fill="#FFFFFF">
                        <rect id="Rectangle-Copy-7" x="0" y="0" width="27" height="7"></rect>
                        <rect id="Rectangle-Copy-8" x="10" y="10" width="7" height="7"></rect>
                    </g>
                    <rect id="Rectangle" fill="#FFFFFF" x="4" y="112" width="59" height="33" rx="3"></rect>
                    <rect id="Rectangle-Copy-13" fill="#FFF201" x="71" y="128" width="75" height="17" rx="3"></rect>
                    <rect id="Rectangle-Copy-14" fill="#FFFFFF" x="104" y="112" width="42" height="12" rx="3"></rect>
                </g>
            </g>
        </g>
    </g>
</svg>